<svg width="122" height="41" viewBox="0 0 122 41" fill="none" xmlns="http://www.w3.org/2000/svg">
<rect y="1" width="122" height="40" fill="#1275CB"/>
<path d="M11.144 25.312C8.584 25.312 6.584 24.624 5.144 23.248C3.704 21.872 2.984 19.928 2.984 17.416C2.984 15.704 3.32 14.192 3.992 12.88C4.68 11.568 5.648 10.56 6.896 9.856C8.144 9.136 9.584 8.776 11.216 8.776C12.544 8.776 13.824 9.016 15.056 9.496L14.408 12.592C13.32 12.096 12.264 11.848 11.24 11.848C9.784 11.848 8.632 12.328 7.784 13.288C6.936 14.232 6.512 15.496 6.512 17.08C6.512 18.696 6.96 19.952 7.856 20.848C8.752 21.744 9.992 22.192 11.576 22.192C12.616 22.192 13.624 22.024 14.6 21.688L15.128 24.64C13.96 25.088 12.632 25.312 11.144 25.312ZM17.258 22.096H19.442V10.36H17.378V7.48H22.826V22.096H25.01V25H17.258V22.096ZM32.6626 25.36C31.4146 25.36 30.3106 25.088 29.3506 24.544C28.4066 24 27.6706 23.24 27.1426 22.264C26.6146 21.272 26.3506 20.128 26.3506 18.832C26.3506 17.536 26.6066 16.4 27.1186 15.424C27.6466 14.432 28.3826 13.664 29.3266 13.12C30.2866 12.576 31.3906 12.304 32.6386 12.304C33.8866 12.304 34.9826 12.576 35.9266 13.12C36.8866 13.648 37.6226 14.4 38.1346 15.376C38.6626 16.352 38.9266 17.48 38.9266 18.76C38.9266 20.056 38.6626 21.208 38.1346 22.216C37.6226 23.208 36.8866 23.984 35.9266 24.544C34.9826 25.088 33.8946 25.36 32.6626 25.36ZM32.6386 22.432C33.5026 22.432 34.1906 22.104 34.7026 21.448C35.2306 20.776 35.4946 19.896 35.4946 18.808C35.4946 17.72 35.2306 16.856 34.7026 16.216C34.1906 15.56 33.5026 15.232 32.6386 15.232C31.7746 15.232 31.0786 15.56 30.5506 16.216C30.0386 16.856 29.7826 17.72 29.7826 18.808C29.7826 19.896 30.0386 20.776 30.5506 21.448C31.0786 22.104 31.7746 22.432 32.6386 22.432ZM45.1282 25.36C44.3442 25.36 43.5842 25.28 42.8482 25.12C42.1282 24.96 41.5122 24.744 41.0002 24.472L41.3122 21.592C41.8562 21.928 42.4562 22.2 43.1122 22.408C43.7682 22.616 44.3842 22.72 44.9602 22.72C45.5042 22.72 45.9602 22.624 46.3282 22.432C46.6962 22.224 46.8802 21.928 46.8802 21.544C46.8802 21.24 46.7522 21.008 46.4962 20.848C46.2402 20.672 45.7522 20.456 45.0322 20.2L44.3842 19.96C43.6962 19.704 43.1362 19.464 42.7042 19.24C42.2722 19 41.8802 18.64 41.5282 18.16C41.1762 17.68 41.0002 17.048 41.0002 16.264C41.0002 15.016 41.4642 14.048 42.3922 13.36C43.3362 12.656 44.5602 12.304 46.0642 12.304C47.2482 12.304 48.4962 12.536 49.8082 13L49.3522 15.856C48.8882 15.584 48.3602 15.368 47.7682 15.208C47.1922 15.032 46.6482 14.944 46.1362 14.944C45.6082 14.944 45.1842 15.032 44.8642 15.208C44.5602 15.384 44.4082 15.64 44.4082 15.976C44.4082 16.296 44.5362 16.536 44.7922 16.696C45.0482 16.856 45.4802 17.04 46.0882 17.248C46.5682 17.424 46.8482 17.528 46.9282 17.56C47.6002 17.832 48.1602 18.096 48.6082 18.352C49.0562 18.608 49.4482 18.992 49.7842 19.504C50.1202 20 50.2882 20.64 50.2882 21.424C50.2882 22.736 49.8162 23.72 48.8722 24.376C47.9282 25.032 46.6802 25.36 45.1282 25.36ZM58.517 25.36C56.517 25.36 54.941 24.784 53.789 23.632C52.653 22.48 52.085 20.88 52.085 18.832C52.085 17.504 52.333 16.352 52.829 15.376C53.325 14.384 54.021 13.624 54.917 13.096C55.829 12.568 56.893 12.304 58.109 12.304C59.901 12.304 61.277 12.88 62.237 14.032C63.197 15.184 63.677 16.848 63.677 19.024C63.677 19.392 63.669 19.664 63.653 19.84H55.493C55.653 20.688 56.021 21.336 56.597 21.784C57.173 22.216 57.949 22.432 58.925 22.432C59.517 22.432 60.133 22.36 60.773 22.216C61.413 22.056 61.973 21.848 62.453 21.592L63.005 24.304C62.365 24.64 61.653 24.896 60.869 25.072C60.101 25.264 59.317 25.36 58.517 25.36ZM60.437 17.296C60.389 16.608 60.149 16.064 59.717 15.664C59.285 15.248 58.709 15.04 57.989 15.04C57.301 15.04 56.733 15.24 56.285 15.64C55.853 16.04 55.581 16.592 55.469 17.296H60.437ZM69.7844 25.36C69.0004 25.36 68.2404 25.28 67.5044 25.12C66.7844 24.96 66.1684 24.744 65.6564 24.472L65.9684 21.592C66.5124 21.928 67.1124 22.2 67.7684 22.408C68.4244 22.616 69.0404 22.72 69.6164 22.72C70.1604 22.72 70.6164 22.624 70.9844 22.432C71.3524 22.224 71.5364 21.928 71.5364 21.544C71.5364 21.24 71.4084 21.008 71.1524 20.848C70.8964 20.672 70.4084 20.456 69.6884 20.2L69.0404 19.96C68.3524 19.704 67.7924 19.464 67.3604 19.24C66.9284 19 66.5364 18.64 66.1844 18.16C65.8324 17.68 65.6564 17.048 65.6564 16.264C65.6564 15.016 66.1204 14.048 67.0484 13.36C67.9924 12.656 69.2164 12.304 70.7204 12.304C71.9044 12.304 73.1524 12.536 74.4644 13L74.0084 15.856C73.5444 15.584 73.0164 15.368 72.4244 15.208C71.8484 15.032 71.3044 14.944 70.7924 14.944C70.2644 14.944 69.8404 15.032 69.5204 15.208C69.2164 15.384 69.0644 15.64 69.0644 15.976C69.0644 16.296 69.1924 16.536 69.4484 16.696C69.7044 16.856 70.1364 17.04 70.7444 17.248C71.2244 17.424 71.5044 17.528 71.5844 17.56C72.2564 17.832 72.8164 18.096 73.2644 18.352C73.7124 18.608 74.1044 18.992 74.4404 19.504C74.7764 20 74.9444 20.64 74.9444 21.424C74.9444 22.736 74.4724 23.72 73.5284 24.376C72.5844 25.032 71.3364 25.36 69.7844 25.36ZM81.9944 25.36C80.8424 25.36 79.9464 25.072 79.3064 24.496C78.6824 23.904 78.3704 23.072 78.3704 22V15.544H76.4504V12.64H78.3704V10C79.5064 9.808 80.6264 9.664 81.7304 9.568V12.64H84.8504V15.544H81.7304V21.376C81.7304 21.712 81.8264 21.968 82.0184 22.144C82.2264 22.32 82.5144 22.408 82.8824 22.408C83.3304 22.408 83.8424 22.304 84.4184 22.096L85.1624 24.64C84.1384 25.12 83.0824 25.36 81.9944 25.36ZM87.68 9.016H93.032C94.584 9.016 95.808 9.392 96.704 10.144C97.616 10.88 98.072 11.888 98.072 13.168C98.072 14.624 97.44 15.744 96.176 16.528C97.856 17.2 98.696 18.384 98.696 20.08C98.696 21.04 98.456 21.896 97.976 22.648C97.496 23.384 96.824 23.96 95.96 24.376C95.112 24.792 94.152 25 93.08 25H87.68V9.016ZM92.216 15.52C93.016 15.52 93.632 15.336 94.064 14.968C94.512 14.6 94.736 14.088 94.736 13.432C94.736 12.248 94 11.656 92.528 11.656H91.016V15.52H92.216ZM92.552 22.336C93.416 22.336 94.088 22.136 94.568 21.736C95.064 21.336 95.312 20.8 95.312 20.128C95.312 19.52 95.104 19.048 94.688 18.712C94.272 18.376 93.672 18.208 92.888 18.208H91.016V22.336H92.552ZM102.547 7.48H106.411V10.6H102.547V7.48ZM100.675 22.096H102.979V15.544H100.675V12.64H106.363V22.096H108.427V25H100.675V22.096ZM110.139 22.768L116.067 15.544H110.547V12.64H120.195V14.848L114.291 22.096H120.195V24.976H110.139V22.768Z" fill="white"/>
<rect x="87.5" y="32" width="32.7" height="2" fill="#F11C3C" fill-opacity="0.7"/>
<rect x="3" y="32" width="84.5" height="2" fill="#9FCBEE"/>
</svg>
